<svg width="374" height="70" viewBox="0 0 374 70" fill="none" xmlns="http://www.w3.org/2000/svg">
<path d="M62.3542 30.0328H53.5638C46.355 30.0328 40.4846 24.534 40.4846 17.7815V9.5474C40.4846 7.98036 39.1158 6.69824 37.4429 6.69824H24.5463C15.1779 6.69824 7.60417 12.3966 7.60417 22.568V47.8116C7.60417 57.9831 15.1779 63.6814 24.5463 63.6814H48.4538C57.8221 63.6814 65.3958 57.9831 65.3958 47.8116V32.882C65.3958 31.315 64.0271 30.0328 62.3542 30.0328ZM35.0704 39.549C34.6142 39.9764 34.0363 40.1758 33.4583 40.1758C32.8804 40.1758 32.3025 39.9764 31.8463 39.549L29.6563 37.4976V49.4356C29.6563 50.6037 28.6221 51.5725 27.375 51.5725C26.1279 51.5725 25.0938 50.6037 25.0938 49.4356V37.4976L22.9038 39.549C22.0217 40.3753 20.5617 40.3753 19.6796 39.549C18.7975 38.7228 18.7975 37.3552 19.6796 36.5289L25.7629 30.8306C25.9758 30.6596 26.1888 30.5172 26.4321 30.4032C26.4929 30.3747 26.5842 30.3462 26.645 30.3177C26.8275 30.2608 27.01 30.2323 27.2229 30.2038C27.3142 30.2038 27.375 30.2038 27.4663 30.2038C27.7096 30.2038 27.9529 30.2608 28.1963 30.3462C28.2267 30.3462 28.2267 30.3462 28.2571 30.3462C28.5004 30.4317 28.7438 30.6027 28.9263 30.7736C28.9567 30.8021 28.9871 30.8021 28.9871 30.8306L35.0704 36.5289C35.9525 37.3552 35.9525 38.7228 35.0704 39.549Z" fill="#EE6A6A"/>
<path d="M53.0162 26.1013C55.9058 26.1298 59.9208 26.1298 63.3579 26.1298C65.0917 26.1298 66.0042 24.2209 64.7875 23.0812C60.4075 18.9499 52.56 11.5136 48.0583 7.29688C46.8112 6.12872 44.6517 6.92649 44.6517 8.5505V18.4941C44.6517 22.6538 48.4233 26.1013 53.0162 26.1013Z" fill="#EE6A6A"/>
<path d="M105.365 27.2685C103.851 27.2685 102.549 26.9957 101.458 26.4502C100.385 25.8871 99.5575 25.0952 98.9768 24.0745C98.4137 23.0362 98.1321 21.8132 98.1321 20.4054V8.42129H101.616V20.5109C101.616 21.6372 101.933 22.5259 102.567 23.177C103.218 23.8281 104.151 24.1537 105.365 24.1537C106.579 24.1537 107.503 23.8281 108.136 23.177C108.788 22.5259 109.113 21.6372 109.113 20.5109V8.42129H112.597V20.4054C112.597 21.8132 112.307 23.0362 111.726 24.0745C111.163 25.0952 110.336 25.8871 109.245 26.4502C108.172 26.9957 106.878 27.2685 105.365 27.2685ZM116.078 32.1783V13.8062H119.352V15.39H119.827C120.126 14.8797 120.592 14.4309 121.226 14.0438C121.859 13.639 122.766 13.4366 123.945 13.4366C125.001 13.4366 125.977 13.7006 126.875 14.2285C127.772 14.7389 128.494 15.4956 129.039 16.4987C129.585 17.5017 129.858 18.716 129.858 20.1414V20.5637C129.858 21.9892 129.585 23.2034 129.039 24.2065C128.494 25.2095 127.772 25.975 126.875 26.503C125.977 27.0133 125.001 27.2685 123.945 27.2685C123.153 27.2685 122.484 27.1717 121.939 26.9781C121.411 26.8021 120.979 26.5734 120.645 26.2918C120.328 25.9926 120.073 25.6935 119.88 25.3943H119.404V32.1783H116.078ZM122.942 24.3648C123.98 24.3648 124.833 24.0393 125.502 23.3882C126.188 22.7195 126.532 21.7516 126.532 20.4845V20.2206C126.532 18.9535 126.188 17.9945 125.502 17.3433C124.816 16.6746 123.962 16.3403 122.942 16.3403C121.921 16.3403 121.067 16.6746 120.381 17.3433C119.695 17.9945 119.352 18.9535 119.352 20.2206V20.4845C119.352 21.7516 119.695 22.7195 120.381 23.3882C121.067 24.0393 121.921 24.3648 122.942 24.3648ZM132.911 26.8989V8.42129H136.237V26.8989H132.911ZM146.153 27.2685C144.85 27.2685 143.68 27.0045 142.642 26.4766C141.604 25.9486 140.785 25.1831 140.187 24.1801C139.589 23.177 139.29 21.9716 139.29 20.5637V20.1414C139.29 18.7336 139.589 17.5281 140.187 16.5251C140.785 15.522 141.604 14.7565 142.642 14.2285C143.68 13.7006 144.85 13.4366 146.153 13.4366C147.455 13.4366 148.625 13.7006 149.663 14.2285C150.702 14.7565 151.52 15.522 152.118 16.5251C152.717 17.5281 153.016 18.7336 153.016 20.1414V20.5637C153.016 21.9716 152.717 23.177 152.118 24.1801C151.52 25.1831 150.702 25.9486 149.663 26.4766C148.625 27.0045 147.455 27.2685 146.153 27.2685ZM146.153 24.3121C147.173 24.3121 148.018 23.9865 148.687 23.3354C149.355 22.6667 149.69 21.7164 149.69 20.4845V20.2206C149.69 18.9887 149.355 18.0473 148.687 17.3961C148.036 16.7274 147.191 16.3931 146.153 16.3931C145.132 16.3931 144.287 16.7274 143.619 17.3961C142.95 18.0473 142.616 18.9887 142.616 20.2206V20.4845C142.616 21.7164 142.95 22.6667 143.619 23.3354C144.287 23.9865 145.132 24.3121 146.153 24.3121ZM160.151 27.2685C159.218 27.2685 158.382 27.1101 157.643 26.7933C156.904 26.459 156.315 25.9838 155.875 25.3679C155.452 24.7344 155.241 23.9689 155.241 23.0714C155.241 22.1739 155.452 21.426 155.875 20.8277C156.315 20.2118 156.913 19.7542 157.67 19.4551C158.444 19.1383 159.324 18.9799 160.309 18.9799H163.899V18.2408C163.899 17.6249 163.706 17.1234 163.319 16.7362C162.931 16.3315 162.315 16.1291 161.471 16.1291C160.644 16.1291 160.028 16.3227 159.623 16.7098C159.218 17.0794 158.954 17.5633 158.831 18.1616L155.769 17.1322C155.98 16.4635 156.315 15.8563 156.772 15.3108C157.247 14.7477 157.872 14.2989 158.646 13.9646C159.438 13.6126 160.397 13.4366 161.524 13.4366C163.248 13.4366 164.612 13.8678 165.615 14.7301C166.618 15.5924 167.12 16.8418 167.12 18.4784V23.3618C167.12 23.8897 167.366 24.1537 167.859 24.1537H168.915V26.8989H166.697C166.046 26.8989 165.509 26.7405 165.087 26.4238C164.665 26.107 164.454 25.6847 164.454 25.1567V25.1304H163.952C163.882 25.3415 163.723 25.6231 163.477 25.975C163.231 26.3094 162.843 26.6086 162.315 26.8725C161.788 27.1365 161.066 27.2685 160.151 27.2685ZM160.732 24.576C161.664 24.576 162.421 24.3209 163.002 23.8105C163.6 23.2826 163.899 22.5875 163.899 21.7252V21.4612H160.547C159.931 21.4612 159.447 21.5932 159.095 21.8572C158.743 22.1211 158.567 22.4907 158.567 22.9658C158.567 23.441 158.752 23.8281 159.121 24.1273C159.491 24.4264 160.028 24.576 160.732 24.576ZM176.368 27.2685C175.33 27.2685 174.353 27.0133 173.438 26.503C172.54 25.975 171.819 25.2095 171.273 24.2065C170.728 23.2034 170.455 21.9892 170.455 20.5637V20.1414C170.455 18.716 170.728 17.5017 171.273 16.4987C171.819 15.4956 172.54 14.7389 173.438 14.2285C174.335 13.7006 175.312 13.4366 176.368 13.4366C177.16 13.4366 177.82 13.5334 178.348 13.727C178.893 13.903 179.333 14.1318 179.668 14.4133C180.002 14.6949 180.257 14.994 180.433 15.3108H180.908V8.42129H184.234V26.8989H180.961V25.3151H180.486C180.187 25.8079 179.72 26.2566 179.087 26.6614C178.471 27.0661 177.565 27.2685 176.368 27.2685ZM177.371 24.3648C178.392 24.3648 179.245 24.0393 179.932 23.3882C180.618 22.7195 180.961 21.7516 180.961 20.4845V20.2206C180.961 18.9535 180.618 17.9945 179.932 17.3433C179.263 16.6746 178.409 16.3403 177.371 16.3403C176.35 16.3403 175.497 16.6746 174.811 17.3433C174.124 17.9945 173.781 18.9535 173.781 20.2206V20.4845C173.781 21.7516 174.124 22.7195 174.811 23.3882C175.497 24.0393 176.35 24.3648 177.371 24.3648ZM98.7656 60.8989V42.4213H105.998C107.142 42.4213 108.145 42.6149 109.007 43.002C109.887 43.3892 110.574 43.9523 111.066 44.6914C111.577 45.4129 111.832 46.2928 111.832 47.3311V47.595C111.832 48.8445 111.533 49.8299 110.934 50.5514C110.336 51.2554 109.632 51.7217 108.823 51.9505V52.2672C109.439 52.2848 109.958 52.4784 110.38 52.848C110.802 53.2175 111.014 53.807 111.014 54.6165V60.8989H109.324V54.8013C109.324 54.2382 109.166 53.807 108.849 53.5079C108.55 53.2087 108.092 53.0591 107.476 53.0591H100.455V60.8989H98.7656ZM100.455 51.5281H105.84C107.213 51.5281 108.268 51.2114 109.007 50.5778C109.764 49.9267 110.143 49.0028 110.143 47.8062V47.6742C110.143 46.4776 109.773 45.5625 109.034 44.929C108.312 44.2779 107.248 43.9523 105.84 43.9523H100.455V51.5281ZM121.331 61.2685C120.029 61.2685 118.885 60.9957 117.899 60.4502C116.932 59.8871 116.175 59.1128 115.629 58.1273C115.101 57.1242 114.837 55.9628 114.837 54.6429V54.3262C114.837 53.0063 115.101 51.8537 115.629 50.8682C116.175 49.8651 116.932 49.0908 117.899 48.5453C118.885 47.9822 120.029 47.7006 121.331 47.7006C122.633 47.7006 123.768 47.9822 124.736 48.5453C125.722 49.0908 126.478 49.8651 127.006 50.8682C127.552 51.8537 127.825 53.0063 127.825 54.3262V54.6429C127.825 55.9628 127.552 57.1242 127.006 58.1273C126.478 59.1128 125.722 59.8871 124.736 60.4502C123.768 60.9957 122.633 61.2685 121.331 61.2685ZM121.331 59.8431C122.844 59.8431 124.041 59.3679 124.921 58.4176C125.801 57.4498 126.241 56.1739 126.241 54.5901V54.379C126.241 52.7952 125.801 51.5281 124.921 50.5778C124.041 49.61 122.844 49.126 121.331 49.126C119.835 49.126 118.639 49.61 117.741 50.5778C116.861 51.5281 116.421 52.7952 116.421 54.379V54.5901C116.421 56.1739 116.861 57.4498 117.741 58.4176C118.639 59.3679 119.835 59.8431 121.331 59.8431ZM137.7 61.2685C136.398 61.2685 135.254 60.9957 134.268 60.4502C133.301 59.8871 132.544 59.1128 131.998 58.1273C131.47 57.1242 131.206 55.9628 131.206 54.6429V54.3262C131.206 53.0063 131.47 51.8537 131.998 50.8682C132.544 49.8651 133.301 49.0908 134.268 48.5453C135.254 47.9822 136.398 47.7006 137.7 47.7006C139.002 47.7006 140.137 47.9822 141.105 48.5453C142.091 49.0908 142.847 49.8651 143.375 50.8682C143.921 51.8537 144.194 53.0063 144.194 54.3262V54.6429C144.194 55.9628 143.921 57.1242 143.375 58.1273C142.847 59.1128 142.091 59.8871 141.105 60.4502C140.137 60.9957 139.002 61.2685 137.7 61.2685ZM137.7 59.8431C139.213 59.8431 140.41 59.3679 141.29 58.4176C142.17 57.4498 142.61 56.1739 142.61 54.5901V54.379C142.61 52.7952 142.17 51.5281 141.29 50.5778C140.41 49.61 139.213 49.126 137.7 49.126C136.204 49.126 135.008 49.61 134.11 50.5778C133.23 51.5281 132.79 52.7952 132.79 54.379V54.5901C132.79 56.1739 133.23 57.4498 134.11 58.4176C135.008 59.3679 136.204 59.8431 137.7 59.8431ZM148.209 60.8989V48.0702H149.74V49.7596H150.057C150.321 49.2844 150.743 48.8445 151.324 48.4397C151.904 48.0174 152.732 47.8062 153.805 47.8062C154.843 47.8062 155.679 48.0438 156.313 48.5189C156.964 48.994 157.43 49.566 157.712 50.2347H158.029C158.328 49.566 158.794 48.994 159.428 48.5189C160.061 48.0438 160.95 47.8062 162.094 47.8062C162.973 47.8062 163.739 47.991 164.39 48.3605C165.041 48.7125 165.552 49.214 165.921 49.8651C166.291 50.4987 166.475 51.2466 166.475 52.1089V60.8989H164.892V52.2672C164.892 51.3521 164.61 50.6218 164.047 50.0763C163.501 49.5132 162.727 49.2316 161.724 49.2316C160.703 49.2316 159.85 49.566 159.164 50.2347C158.477 50.8858 158.134 51.8449 158.134 53.1119V60.8989H156.55V52.2672C156.55 51.3521 156.269 50.6218 155.706 50.0763C155.16 49.5132 154.386 49.2316 153.383 49.2316C152.362 49.2316 151.509 49.566 150.822 50.2347C150.136 50.8858 149.793 51.8449 149.793 53.1119V60.8989H148.209ZM177.723 60.8989V42.4213H179.413V60.8989H177.723ZM184.015 60.8989V48.0702H185.546V49.7596H185.862C186.126 49.2844 186.549 48.8445 187.129 48.4397C187.71 48.0174 188.537 47.8062 189.611 47.8062C190.649 47.8062 191.485 48.0438 192.118 48.5189C192.769 48.994 193.236 49.566 193.517 50.2347H193.834C194.133 49.566 194.6 48.994 195.233 48.5189C195.867 48.0438 196.755 47.8062 197.899 47.8062C198.779 47.8062 199.545 47.991 200.196 48.3605C200.847 48.7125 201.357 49.214 201.727 49.8651C202.096 50.4987 202.281 51.2466 202.281 52.1089V60.8989H200.697V52.2672C200.697 51.3521 200.416 50.6218 199.853 50.0763C199.307 49.5132 198.533 49.2316 197.53 49.2316C196.509 49.2316 195.655 49.566 194.969 50.2347C194.283 50.8858 193.94 51.8449 193.94 53.1119V60.8989H192.356V52.2672C192.356 51.3521 192.074 50.6218 191.511 50.0763C190.966 49.5132 190.191 49.2316 189.188 49.2316C188.168 49.2316 187.314 49.566 186.628 50.2347C185.941 50.8858 185.598 51.8449 185.598 53.1119V60.8989H184.015ZM210.71 61.2685C209.812 61.2685 208.994 61.1189 208.255 60.8197C207.533 60.503 206.961 60.0454 206.539 59.4471C206.117 58.8488 205.905 58.1273 205.905 57.2826C205.905 56.4203 206.117 55.7076 206.539 55.1445C206.961 54.5813 207.533 54.159 208.255 53.8774C208.976 53.5959 209.777 53.4551 210.657 53.4551H215.355V52.4256C215.355 51.3873 215.056 50.5778 214.458 49.9971C213.86 49.4164 212.988 49.126 211.845 49.126C210.718 49.126 209.821 49.4076 209.152 49.9707C208.501 50.5163 208.061 51.2554 207.832 52.188L206.301 51.7393C206.513 50.9826 206.847 50.3051 207.304 49.7068C207.762 49.0908 208.369 48.6069 209.126 48.2549C209.882 47.8854 210.789 47.7006 211.845 47.7006C213.464 47.7006 214.713 48.123 215.593 48.9677C216.49 49.8123 216.939 50.9914 216.939 52.5048V58.7344C216.939 59.2623 217.186 59.5263 217.678 59.5263H218.919V60.8989H217.23C216.684 60.8989 216.253 60.7405 215.936 60.4238C215.619 60.0894 215.461 59.6407 215.461 59.0776V58.8928H215.197C214.968 59.2799 214.669 59.6583 214.3 60.0278C213.948 60.3974 213.481 60.6966 212.9 60.9253C212.32 61.1541 211.589 61.2685 210.71 61.2685ZM210.815 59.8431C212.17 59.8431 213.261 59.4383 214.088 58.6288C214.933 57.8017 215.355 56.6403 215.355 55.1445V54.8277H210.683C209.768 54.8277 209.003 55.0301 208.387 55.4348C207.788 55.822 207.489 56.4291 207.489 57.2562C207.489 58.0833 207.797 58.7256 208.413 59.1831C209.047 59.6231 209.847 59.8431 210.815 59.8431ZM220.914 54.5373V54.2206C220.914 52.8656 221.186 51.7041 221.732 50.7362C222.295 49.7683 223.043 49.0204 223.976 48.4925C224.908 47.9646 225.947 47.7006 227.091 47.7006C228.498 47.7006 229.589 47.9822 230.364 48.5453C231.156 49.0908 231.736 49.7156 232.106 50.4195H232.423V48.0702H233.901V64.1721C233.901 64.8056 233.734 65.2984 233.399 65.6503C233.065 66.0023 232.555 66.1783 231.868 66.1783H223.105V64.7528H231.552C232.097 64.7528 232.37 64.4889 232.37 63.9609V58.444H232.053C231.824 58.8664 231.499 59.2799 231.076 59.6847C230.672 60.0894 230.144 60.4238 229.493 60.6878C228.842 60.9341 228.041 61.0573 227.091 61.0573C225.947 61.0573 224.9 60.7933 223.949 60.2654C223.017 59.7375 222.278 58.9896 221.732 58.0217C221.186 57.0362 220.914 55.8748 220.914 54.5373ZM227.46 59.6319C228.921 59.6319 230.1 59.1743 230.997 58.2593C231.912 57.3442 232.37 56.0859 232.37 54.4845V54.2734C232.37 52.6544 231.912 51.3961 230.997 50.4987C230.1 49.5836 228.921 49.126 227.46 49.126C226.017 49.126 224.838 49.5836 223.923 50.4987C223.008 51.3961 222.55 52.6544 222.55 54.2734V54.4845C222.55 56.0859 223.008 57.3442 223.923 58.2593C224.838 59.1743 226.017 59.6319 227.46 59.6319ZM244.448 61.2685C243.128 61.2685 241.975 60.9957 240.99 60.4502C240.022 59.8871 239.265 59.104 238.72 58.1009C238.174 57.0978 237.901 55.9452 237.901 54.6429V54.3262C237.901 53.0063 238.174 51.8537 238.72 50.8682C239.265 49.8651 240.013 49.0908 240.963 48.5453C241.931 47.9822 243.031 47.7006 244.263 47.7006C245.46 47.7006 246.515 47.9558 247.431 48.4661C248.363 48.9589 249.094 49.6804 249.621 50.6306C250.149 51.5633 250.413 52.6808 250.413 53.983V54.8277H239.485C239.538 56.4291 240.022 57.6697 240.937 58.5496C241.87 59.4119 243.04 59.8431 244.448 59.8431C245.644 59.8431 246.568 59.5703 247.219 59.0248C247.888 58.4792 248.398 57.8105 248.75 57.0186L250.176 57.6521C249.912 58.2329 249.542 58.8048 249.067 59.3679C248.61 59.9135 248.011 60.371 247.272 60.7405C246.533 61.0925 245.592 61.2685 244.448 61.2685ZM239.512 53.4551H248.803C248.733 52.0649 248.284 51.0002 247.457 50.2611C246.63 49.5044 245.565 49.126 244.263 49.126C242.978 49.126 241.914 49.5044 241.069 50.2611C240.224 51.0002 239.705 52.0649 239.512 53.4551Z" fill="#EE6A6A"/>
</svg>
