<svg width="391" height="81" viewBox="0 0 391 81" fill="none" xmlns="http://www.w3.org/2000/svg">
<rect width="391" height="80.8397" rx="14.8481" fill="#FC6736"/>
<path d="M66.2675 34.2125H59.9049C54.6872 34.2125 50.4381 30.2324 50.4381 25.3449V19.385C50.4381 18.2508 49.4474 17.3228 48.2365 17.3228H38.9019C32.121 17.3228 26.6391 21.4472 26.6391 28.8094V47.0808C26.6391 54.443 32.121 58.5675 38.9019 58.5675H56.2063C62.9871 58.5675 68.469 54.443 68.469 47.0808V36.2747C68.469 35.1405 67.4783 34.2125 66.2675 34.2125ZM46.5193 41.1003C46.1891 41.4097 45.7708 41.554 45.3525 41.554C44.9342 41.554 44.5159 41.4097 44.1856 41.1003L42.6005 39.6155V48.2563C42.6005 49.1018 41.852 49.803 40.9493 49.803C40.0467 49.803 39.2981 49.1018 39.2981 48.2563V39.6155L37.713 41.1003C37.0746 41.6984 36.0178 41.6984 35.3793 41.1003C34.7409 40.5023 34.7409 39.5124 35.3793 38.9144L39.7825 34.7899C39.9366 34.6662 40.0907 34.563 40.2668 34.4806C40.3109 34.4599 40.3769 34.4393 40.421 34.4187C40.553 34.3774 40.6851 34.3568 40.8393 34.3362C40.9053 34.3362 40.9493 34.3362 41.0154 34.3362C41.1915 34.3362 41.3676 34.3774 41.5438 34.4393C41.5658 34.4393 41.5658 34.4393 41.5878 34.4393C41.7639 34.5012 41.94 34.6249 42.0721 34.7487C42.0942 34.7693 42.1162 34.7693 42.1162 34.7899L46.5193 38.9144C47.1578 39.5124 47.1578 40.5023 46.5193 41.1003Z" fill="#EFECEC"/>
<path d="M59.5086 31.3668C61.6001 31.3875 64.5062 31.3875 66.994 31.3875C68.2489 31.3875 68.9093 30.0058 68.0287 29.1809C64.8584 26.1906 59.1784 20.8082 55.92 17.7561C55.0174 16.9106 53.4543 17.488 53.4543 18.6635V25.8607C53.4543 28.8715 56.1842 31.3668 59.5086 31.3668Z" fill="#EFECEC"/>
<path d="M107.5 49.4667C105.986 49.4667 104.684 49.194 103.593 48.6484C102.52 48.0853 101.693 47.2934 101.112 46.2727C100.549 45.2345 100.267 44.0114 100.267 42.6036V30.6195H103.752V42.7092C103.752 43.8354 104.068 44.7241 104.702 45.3752C105.353 46.0264 106.286 46.3519 107.5 46.3519C108.714 46.3519 109.638 46.0264 110.272 45.3752C110.923 44.7241 111.248 43.8354 111.248 42.7092V30.6195H114.733V42.6036C114.733 44.0114 114.442 45.2345 113.861 46.2727C113.298 47.2934 112.471 48.0853 111.38 48.6484C110.307 49.194 109.013 49.4667 107.5 49.4667ZM118.214 54.3765V36.0044H121.487V37.5882H121.962C122.261 37.0779 122.727 36.6292 123.361 36.242C123.994 35.8373 124.901 35.6349 126.08 35.6349C127.136 35.6349 128.112 35.8989 129.01 36.4268C129.907 36.9371 130.629 37.6938 131.174 38.6969C131.72 39.7 131.993 40.9142 131.993 42.3396V42.762C131.993 44.1874 131.72 45.4016 131.174 46.4047C130.629 47.4078 129.907 48.1733 129.01 48.7012C128.112 49.2116 127.136 49.4667 126.08 49.4667C125.288 49.4667 124.619 49.3699 124.074 49.1764C123.546 49.0004 123.115 48.7716 122.78 48.49C122.463 48.1909 122.208 47.8917 122.015 47.5926H121.54V54.3765H118.214ZM125.077 46.5631C126.115 46.5631 126.969 46.2375 127.637 45.5864C128.324 44.9177 128.667 43.9498 128.667 42.6828V42.4188C128.667 41.1518 128.324 40.1927 127.637 39.5416C126.951 38.8729 126.097 38.5385 125.077 38.5385C124.056 38.5385 123.203 38.8729 122.516 39.5416C121.83 40.1927 121.487 41.1518 121.487 42.4188V42.6828C121.487 43.9498 121.83 44.9177 122.516 45.5864C123.203 46.2375 124.056 46.5631 125.077 46.5631ZM135.047 49.0972V30.6195H138.373V49.0972H135.047ZM148.288 49.4667C146.986 49.4667 145.815 49.2028 144.777 48.6748C143.739 48.1469 142.921 47.3814 142.322 46.3783C141.724 45.3752 141.425 44.1698 141.425 42.762V42.3396C141.425 40.9318 141.724 39.7264 142.322 38.7233C142.921 37.7202 143.739 36.9547 144.777 36.4268C145.815 35.8989 146.986 35.6349 148.288 35.6349C149.59 35.6349 150.76 35.8989 151.799 36.4268C152.837 36.9547 153.655 37.7202 154.253 38.7233C154.852 39.7264 155.151 40.9318 155.151 42.3396V42.762C155.151 44.1698 154.852 45.3752 154.253 46.3783C153.655 47.3814 152.837 48.1469 151.799 48.6748C150.76 49.2028 149.59 49.4667 148.288 49.4667ZM148.288 46.5103C149.309 46.5103 150.153 46.1847 150.822 45.5336C151.491 44.8649 151.825 43.9146 151.825 42.6828V42.4188C151.825 41.187 151.491 40.2455 150.822 39.5944C150.171 38.9257 149.326 38.5913 148.288 38.5913C147.267 38.5913 146.422 38.9257 145.754 39.5944C145.085 40.2455 144.751 41.187 144.751 42.4188V42.6828C144.751 43.9146 145.085 44.8649 145.754 45.5336C146.422 46.1847 147.267 46.5103 148.288 46.5103ZM162.286 49.4667C161.353 49.4667 160.518 49.3083 159.778 48.9916C159.039 48.6572 158.45 48.1821 158.01 47.5662C157.587 46.9326 157.376 46.1671 157.376 45.2697C157.376 44.3722 157.587 43.6243 158.01 43.0259C158.45 42.41 159.048 41.9525 159.805 41.6533C160.579 41.3366 161.459 41.1782 162.444 41.1782H166.034V40.4391C166.034 39.8232 165.841 39.3216 165.454 38.9345C165.067 38.5297 164.451 38.3273 163.606 38.3273C162.779 38.3273 162.163 38.5209 161.758 38.9081C161.353 39.2776 161.089 39.7616 160.966 40.3599L157.904 39.3304C158.115 38.6617 158.45 38.0546 158.907 37.509C159.382 36.9459 160.007 36.4972 160.781 36.1628C161.573 35.8109 162.532 35.6349 163.659 35.6349C165.383 35.6349 166.747 36.066 167.75 36.9283C168.753 37.7906 169.255 39.0401 169.255 40.6766V45.56C169.255 46.088 169.501 46.3519 169.994 46.3519H171.05V49.0972H168.832C168.181 49.0972 167.645 48.9388 167.222 48.622C166.8 48.3053 166.589 47.8829 166.589 47.355V47.3286H166.087C166.017 47.5398 165.858 47.8213 165.612 48.1733C165.366 48.5076 164.979 48.8068 164.451 49.0708C163.923 49.3347 163.201 49.4667 162.286 49.4667ZM162.867 46.7743C163.799 46.7743 164.556 46.5191 165.137 46.0088C165.735 45.4808 166.034 44.7857 166.034 43.9234V43.6595H162.682C162.066 43.6595 161.582 43.7914 161.23 44.0554C160.878 44.3194 160.702 44.6889 160.702 45.1641C160.702 45.6392 160.887 46.0264 161.257 46.3255C161.626 46.6247 162.163 46.7743 162.867 46.7743ZM178.503 49.4667C177.465 49.4667 176.488 49.2116 175.573 48.7012C174.676 48.1733 173.954 47.4078 173.409 46.4047C172.863 45.4016 172.59 44.1874 172.59 42.762V42.3396C172.59 40.9142 172.863 39.7 173.409 38.6969C173.954 37.6938 174.676 36.9371 175.573 36.4268C176.471 35.8989 177.447 35.6349 178.503 35.6349C179.295 35.6349 179.955 35.7317 180.483 35.9253C181.028 36.1012 181.468 36.33 181.803 36.6116C182.137 36.8931 182.392 37.1923 182.568 37.509H183.043V30.6195H186.369V49.0972H183.096V47.5134H182.621C182.322 48.0061 181.855 48.4549 181.222 48.8596C180.606 49.2643 179.7 49.4667 178.503 49.4667ZM179.506 46.5631C180.527 46.5631 181.38 46.2375 182.067 45.5864C182.753 44.9177 183.096 43.9498 183.096 42.6828V42.4188C183.096 41.1518 182.753 40.1927 182.067 39.5416C181.398 38.8729 180.544 38.5385 179.506 38.5385C178.486 38.5385 177.632 38.8729 176.946 39.5416C176.259 40.1927 175.916 41.1518 175.916 42.4188V42.6828C175.916 43.9498 176.259 44.9177 176.946 45.5864C177.632 46.2375 178.486 46.5631 179.506 46.5631ZM203.884 49.0972V30.6195H211.116C212.26 30.6195 213.263 30.8131 214.126 31.2003C215.005 31.5874 215.692 32.1505 216.184 32.8896C216.695 33.6111 216.95 34.491 216.95 35.5293V35.7933C216.95 37.0427 216.651 38.0282 216.053 38.7497C215.454 39.4536 214.75 39.9199 213.941 40.1487V40.4655C214.557 40.4831 215.076 40.6766 215.498 41.0462C215.921 41.4158 216.132 42.0053 216.132 42.8148V49.0972H214.442V42.9995C214.442 42.4364 214.284 42.0053 213.967 41.7061C213.668 41.407 213.21 41.2574 212.595 41.2574H205.573V49.0972H203.884ZM205.573 39.7264H210.958C212.331 39.7264 213.386 39.4096 214.126 38.7761C214.882 38.125 215.261 37.2011 215.261 36.0044V35.8725C215.261 34.6758 214.891 33.7607 214.152 33.1272C213.43 32.4761 212.366 32.1505 210.958 32.1505H205.573V39.7264ZM226.449 49.4667C225.147 49.4667 224.003 49.194 223.018 48.6484C222.05 48.0853 221.293 47.311 220.747 46.3255C220.219 45.3225 219.955 44.161 219.955 42.8412V42.5244C219.955 41.2046 220.219 40.0519 220.747 39.0665C221.293 38.0634 222.05 37.2891 223.018 36.7435C224.003 36.1804 225.147 35.8989 226.449 35.8989C227.751 35.8989 228.886 36.1804 229.854 36.7435C230.84 37.2891 231.596 38.0634 232.124 39.0665C232.67 40.0519 232.943 41.2046 232.943 42.5244V42.8412C232.943 44.161 232.67 45.3225 232.124 46.3255C231.596 47.311 230.84 48.0853 229.854 48.6484C228.886 49.194 227.751 49.4667 226.449 49.4667ZM226.449 48.0413C227.962 48.0413 229.159 47.5662 230.039 46.6159C230.919 45.648 231.359 44.3722 231.359 42.7884V42.5772C231.359 40.9934 230.919 39.7264 230.039 38.7761C229.159 37.8082 227.962 37.3243 226.449 37.3243C224.953 37.3243 223.757 37.8082 222.859 38.7761C221.979 39.7264 221.539 40.9934 221.539 42.5772V42.7884C221.539 44.3722 221.979 45.648 222.859 46.6159C223.757 47.5662 224.953 48.0413 226.449 48.0413ZM242.818 49.4667C241.516 49.4667 240.372 49.194 239.387 48.6484C238.419 48.0853 237.662 47.311 237.116 46.3255C236.588 45.3225 236.325 44.161 236.325 42.8412V42.5244C236.325 41.2046 236.588 40.0519 237.116 39.0665C237.662 38.0634 238.419 37.2891 239.387 36.7435C240.372 36.1804 241.516 35.8989 242.818 35.8989C244.12 35.8989 245.255 36.1804 246.223 36.7435C247.209 37.2891 247.965 38.0634 248.493 39.0665C249.039 40.0519 249.312 41.2046 249.312 42.5244V42.8412C249.312 44.161 249.039 45.3225 248.493 46.3255C247.965 47.311 247.209 48.0853 246.223 48.6484C245.255 49.194 244.12 49.4667 242.818 49.4667ZM242.818 48.0413C244.331 48.0413 245.528 47.5662 246.408 46.6159C247.288 45.648 247.728 44.3722 247.728 42.7884V42.5772C247.728 40.9934 247.288 39.7264 246.408 38.7761C245.528 37.8082 244.331 37.3243 242.818 37.3243C241.322 37.3243 240.126 37.8082 239.228 38.7761C238.348 39.7264 237.908 40.9934 237.908 42.5772V42.7884C237.908 44.3722 238.348 45.648 239.228 46.6159C240.126 47.5662 241.322 48.0413 242.818 48.0413ZM253.327 49.0972V36.2684H254.858V37.9578H255.175C255.439 37.4827 255.861 37.0427 256.442 36.638C257.023 36.2156 257.85 36.0044 258.923 36.0044C259.961 36.0044 260.797 36.242 261.431 36.7172C262.082 37.1923 262.548 37.7642 262.83 38.4329H263.147C263.446 37.7642 263.912 37.1923 264.546 36.7172C265.179 36.242 266.068 36.0044 267.212 36.0044C268.092 36.0044 268.857 36.1892 269.508 36.5588C270.159 36.9107 270.67 37.4123 271.039 38.0634C271.409 38.6969 271.593 39.4448 271.593 40.3071V49.0972H270.01V40.4655C270.01 39.5504 269.728 38.8201 269.165 38.2746C268.619 37.7114 267.845 37.4299 266.842 37.4299C265.821 37.4299 264.968 37.7642 264.282 38.4329C263.595 39.084 263.252 40.0431 263.252 41.3102V49.0972H261.668V40.4655C261.668 39.5504 261.387 38.8201 260.824 38.2746C260.278 37.7114 259.504 37.4299 258.501 37.4299C257.48 37.4299 256.627 37.7642 255.94 38.4329C255.254 39.084 254.911 40.0431 254.911 41.3102V49.0972H253.327ZM282.842 49.0972V30.6195H284.531V49.0972H282.842ZM289.133 49.0972V36.2684H290.664V37.9578H290.98C291.244 37.4827 291.667 37.0427 292.247 36.638C292.828 36.2156 293.655 36.0044 294.729 36.0044C295.767 36.0044 296.603 36.242 297.236 36.7172C297.887 37.1923 298.354 37.7642 298.635 38.4329H298.952C299.251 37.7642 299.718 37.1923 300.351 36.7172C300.985 36.242 301.873 36.0044 303.017 36.0044C303.897 36.0044 304.663 36.1892 305.314 36.5588C305.965 36.9107 306.475 37.4123 306.845 38.0634C307.214 38.6969 307.399 39.4448 307.399 40.3071V49.0972H305.815V40.4655C305.815 39.5504 305.534 38.8201 304.971 38.2746C304.425 37.7114 303.651 37.4299 302.648 37.4299C301.627 37.4299 300.774 37.7642 300.087 38.4329C299.401 39.084 299.058 40.0431 299.058 41.3102V49.0972H297.474V40.4655C297.474 39.5504 297.192 38.8201 296.629 38.2746C296.084 37.7114 295.309 37.4299 294.306 37.4299C293.286 37.4299 292.432 37.7642 291.746 38.4329C291.06 39.084 290.716 40.0431 290.716 41.3102V49.0972H289.133ZM315.828 49.4667C314.93 49.4667 314.112 49.3171 313.373 49.018C312.651 48.7012 312.079 48.2437 311.657 47.6454C311.235 47.047 311.023 46.3255 311.023 45.4808C311.023 44.6185 311.235 43.9058 311.657 43.3427C312.079 42.7796 312.651 42.3572 313.373 42.0757C314.094 41.7941 314.895 41.6533 315.775 41.6533H320.473V40.6239C320.473 39.5856 320.174 38.7761 319.576 38.1954C318.978 37.6146 318.107 37.3243 316.963 37.3243C315.836 37.3243 314.939 37.6058 314.27 38.169C313.619 38.7145 313.179 39.4536 312.95 40.3863L311.419 39.9375C311.631 39.1808 311.965 38.5033 312.422 37.905C312.88 37.2891 313.487 36.8051 314.244 36.4532C315.001 36.0836 315.907 35.8989 316.963 35.8989C318.582 35.8989 319.831 36.3212 320.711 37.1659C321.608 38.0106 322.057 39.1896 322.057 40.703V46.9326C322.057 47.4606 322.304 47.7245 322.796 47.7245H324.037V49.0972H322.348C321.802 49.0972 321.371 48.9388 321.054 48.622C320.737 48.2877 320.579 47.8389 320.579 47.2758V47.091H320.315C320.086 47.4782 319.787 47.8565 319.418 48.2261C319.066 48.5956 318.599 48.8948 318.019 49.1236C317.438 49.3523 316.708 49.4667 315.828 49.4667ZM315.933 48.0413C317.288 48.0413 318.379 47.6366 319.206 46.8271C320.051 46 320.473 44.8385 320.473 43.3427V43.0259H315.801C314.886 43.0259 314.121 43.2283 313.505 43.6331C312.906 44.0202 312.607 44.6273 312.607 45.4544C312.607 46.2815 312.915 46.9238 313.531 47.3814C314.165 47.8213 314.965 48.0413 315.933 48.0413ZM326.032 42.7356V42.4188C326.032 41.0638 326.305 39.9023 326.85 38.9345C327.413 37.9666 328.161 37.2187 329.094 36.6908C330.026 36.1628 331.065 35.8989 332.209 35.8989C333.616 35.8989 334.707 36.1804 335.482 36.7435C336.274 37.2891 336.854 37.9138 337.224 38.6177H337.541V36.2684H339.019V52.3703C339.019 53.0039 338.852 53.4966 338.517 53.8486C338.183 54.2005 337.673 54.3765 336.986 54.3765H328.223V52.9511H336.67C337.215 52.9511 337.488 52.6871 337.488 52.1592V46.6423H337.171C336.942 47.0646 336.617 47.4782 336.194 47.8829C335.79 48.2877 335.262 48.622 334.611 48.886C333.96 49.1324 333.159 49.2555 332.209 49.2555C331.065 49.2555 330.018 48.9916 329.067 48.4636C328.135 47.9357 327.396 47.1878 326.85 46.2199C326.305 45.2345 326.032 44.073 326.032 42.7356ZM332.578 47.8301C334.039 47.8301 335.218 47.3726 336.115 46.4575C337.03 45.5424 337.488 44.2842 337.488 42.6828V42.4716C337.488 40.8526 337.03 39.5944 336.115 38.6969C335.218 37.7818 334.039 37.3243 332.578 37.3243C331.135 37.3243 329.956 37.7818 329.041 38.6969C328.126 39.5944 327.668 40.8526 327.668 42.4716V42.6828C327.668 44.2842 328.126 45.5424 329.041 46.4575C329.956 47.3726 331.135 47.8301 332.578 47.8301ZM349.566 49.4667C348.246 49.4667 347.093 49.194 346.108 48.6484C345.14 48.0853 344.383 47.3022 343.838 46.2991C343.292 45.2961 343.019 44.1434 343.019 42.8412V42.5244C343.019 41.2046 343.292 40.0519 343.838 39.0665C344.383 38.0634 345.131 37.2891 346.081 36.7435C347.049 36.1804 348.149 35.8989 349.381 35.8989C350.578 35.8989 351.634 36.154 352.549 36.6644C353.481 37.1571 354.212 37.8786 354.74 38.8289C355.267 39.7616 355.531 40.879 355.531 42.1813V43.0259H344.603C344.656 44.6273 345.14 45.868 346.055 46.7479C346.988 47.6102 348.158 48.0413 349.566 48.0413C350.762 48.0413 351.686 47.7685 352.337 47.223C353.006 46.6775 353.517 46.0088 353.868 45.2169L355.294 45.8504C355.03 46.4311 354.66 47.003 354.185 47.5662C353.728 48.1117 353.129 48.5692 352.39 48.9388C351.651 49.2907 350.71 49.4667 349.566 49.4667ZM344.63 41.6533H353.921C353.851 40.2631 353.402 39.1984 352.575 38.4593C351.748 37.7026 350.683 37.3243 349.381 37.3243C348.096 37.3243 347.032 37.7026 346.187 38.4593C345.342 39.1984 344.823 40.2631 344.63 41.6533Z" fill="#EFECEC"/>
</svg>
